<svg width="1200" height="820" viewBox="0 0 1200 820" fill="none" xmlns="http://www.w3.org/2000/svg" role="img" aria-labelledby="title desc">
  <title id="title">Stormy train station cover artwork</title>
  <desc id="desc">A cinematic night train station with rain, a glowing platform lamp, and a silver train arriving through the storm.</desc>
  <defs>
    <linearGradient id="sky" x1="0" y1="0" x2="1200" y2="820" gradientUnits="userSpaceOnUse">
      <stop stop-color="#0B1020"/>
      <stop offset="0.52" stop-color="#1B2A4A"/>
      <stop offset="1" stop-color="#4B2F5D"/>
    </linearGradient>
    <linearGradient id="platform" x1="0" y1="595" x2="1200" y2="820" gradientUnits="userSpaceOnUse">
      <stop stop-color="#111827"/>
      <stop offset="1" stop-color="#334155"/>
    </linearGradient>
    <linearGradient id="train" x1="272" y1="366" x2="1040" y2="522" gradientUnits="userSpaceOnUse">
      <stop stop-color="#E2E8F0"/>
      <stop offset="0.38" stop-color="#94A3B8"/>
      <stop offset="1" stop-color="#CBD5E1"/>
    </linearGradient>
    <radialGradient id="lampGlow" cx="0" cy="0" r="1" gradientUnits="userSpaceOnUse" gradientTransform="translate(323 236) rotate(90) scale(338 338)">
      <stop stop-color="#FDE68A" stop-opacity="0.95"/>
      <stop offset="0.38" stop-color="#F59E0B" stop-opacity="0.28"/>
      <stop offset="1" stop-color="#F59E0B" stop-opacity="0"/>
    </radialGradient>
    <filter id="softGlow" x="-40%" y="-40%" width="180%" height="180%">
      <feGaussianBlur stdDeviation="18"/>
    </filter>
  </defs>

  <rect width="1200" height="820" rx="54" fill="url(#sky)"/>
  <circle cx="996" cy="114" r="58" fill="#E0F2FE" opacity="0.78"/>
  <circle cx="970" cy="92" r="58" fill="#17213B" opacity="0.86"/>

  <path d="M0 642C145 610 244 621 376 650C512 680 647 700 780 662C905 626 1052 605 1200 629V820H0V642Z" fill="url(#platform)"/>
  <path d="M0 606H1200" stroke="#FBBF24" stroke-width="7" stroke-linecap="round" opacity="0.88"/>
  <path d="M78 704H1122" stroke="#94A3B8" stroke-width="5" stroke-linecap="round" opacity="0.54"/>
  <path d="M126 752H1074" stroke="#64748B" stroke-width="4" stroke-linecap="round" opacity="0.62"/>

  <ellipse cx="323" cy="342" rx="284" ry="304" fill="url(#lampGlow)"/>
  <path d="M323 240V602" stroke="#F8FAFC" stroke-width="10" stroke-linecap="round"/>
  <path d="M272 602H374" stroke="#F8FAFC" stroke-width="12" stroke-linecap="round"/>
  <path d="M278 225C282 198 303 179 323 179C343 179 364 198 368 225H278Z" fill="#F8FAFC"/>
  <ellipse cx="323" cy="229" rx="60" ry="22" fill="#FDE68A" opacity="0.98"/>
  <circle cx="323" cy="232" r="28" fill="#FBBF24" filter="url(#softGlow)" opacity="0.85"/>

  <g opacity="0.88">
    <path d="M232 481C273 413 348 374 432 374H795C891 374 970 443 988 535H212C211 515 218 497 232 481Z" fill="url(#train)"/>
    <path d="M338 415H470C493 415 512 434 512 457V488H306V447C306 429 320 415 338 415Z" fill="#1E293B" opacity="0.86"/>
    <path d="M552 415H681C704 415 723 434 723 457V488H522V445C522 428 535 415 552 415Z" fill="#1E293B" opacity="0.86"/>
    <path d="M759 415H843C880 415 914 437 929 470L938 488H742V432C742 423 750 415 759 415Z" fill="#1E293B" opacity="0.86"/>
    <path d="M244 535H990" stroke="#F8FAFC" stroke-width="6" opacity="0.74"/>
    <circle cx="352" cy="548" r="32" fill="#0F172A"/>
    <circle cx="817" cy="548" r="32" fill="#0F172A"/>
    <circle cx="352" cy="548" r="14" fill="#94A3B8"/>
    <circle cx="817" cy="548" r="14" fill="#94A3B8"/>
  </g>

  <g opacity="0.92">
    <path d="M515 601C515 572 531 548 550 548C569 548 585 572 585 601H515Z" fill="#0F172A"/>
    <circle cx="550" cy="524" r="20" fill="#0F172A"/>
    <path d="M607 601C607 564 627 533 651 533C675 533 695 564 695 601H607Z" fill="#172554"/>
    <circle cx="651" cy="504" r="23" fill="#172554"/>
    <path d="M586 568C602 558 616 558 633 568" stroke="#FDE68A" stroke-width="6" stroke-linecap="round" opacity="0.8"/>
  </g>

  <g stroke="#BFDBFE" stroke-width="4" stroke-linecap="round" opacity="0.42">
    <path d="M80 102L36 169"/>
    <path d="M182 42L135 116"/>
    <path d="M275 132L231 203"/>
    <path d="M432 64L381 143"/>
    <path d="M564 112L518 184"/>
    <path d="M718 36L668 118"/>
    <path d="M846 132L802 201"/>
    <path d="M1038 204L988 284"/>
    <path d="M1132 86L1086 158"/>
    <path d="M154 288L112 351"/>
    <path d="M463 257L421 324"/>
    <path d="M685 278L636 356"/>
    <path d="M1072 354L1028 424"/>
  </g>

  <path d="M78 208C118 164 168 152 219 177C246 128 320 120 359 170C410 154 467 179 489 229H78V208Z" fill="#334155" opacity="0.52"/>
  <path d="M686 226C721 184 776 178 817 209C856 154 944 161 980 225C1027 214 1083 240 1102 292H686V226Z" fill="#334155" opacity="0.42"/>
</svg>
